<?xml version="1.0" encoding="UTF-8" standalone="no"?>
<!DOCTYPE svg PUBLIC "-//W3C//DTD SVG 1.0//EN" "http://www.w3.org/TR/2001/REC-SVG-20010904/DTD/svg10.dtd">
<!-- Создано Microsoft Visio 11.0, Экспорт SVG, версия 1.0 pipeline2.svg Страница-1 -->
<svg xmlns="http://www.w3.org/2000/svg" xmlns:xlink="http://www.w3.org/1999/xlink" xmlns:ev="http://www.w3.org/2001/xml-events"
		xmlns:v="http://schemas.microsoft.com/visio/2003/SVGExtensions/" width="7.90259in" height="0.794068in"
		viewBox="0 0 568.986 57.1729" xml:space="preserve" color-interpolation-filters="sRGB" class="st7">
	<v:documentProperties v:langID="1049" v:metric="true" v:viewMarkup="false"/>

	<style type="text/css">
	<![CDATA[
		.st1 {fill:none;stroke:#164326;stroke-linecap:round;stroke-linejoin:round;stroke-width:0.24}
		.st2 {fill:#164326;font-family:Arial Narrow;font-size:1.08334em}
		.st3 {font-size:1em}
		.st4 {fill:none}
		.st5 {stroke:#164326;stroke-linecap:round;stroke-linejoin:round;stroke-width:0.24}
		.st6 {fill:none;stroke:#164326;stroke-linecap:round;stroke-linejoin:round;stroke-width:0.24;visibility:hidden}
		.st7 {fill:none;fill-rule:evenodd;font-size:12px;overflow:visible;stroke-linecap:square;stroke-miterlimit:3}
	]]>
	</style>

	<g v:mID="0" v:index="1" v:groupContext="foregroundPage">
		<title>Страница-1</title>
		<v:pageProperties v:drawingScale="0.0393701" v:pageScale="0.0393701" v:drawingUnits="24" v:shadowOffsetX="8.50394"
				v:shadowOffsetY="-8.50394"/>
		<g id="shape1-1" v:mID="1" v:groupContext="shape" transform="translate(31.5809,-0.24)">
			<title>Поле</title>
			<desc>статич. анализ</desc>
			<v:userDefs>
				<v:ud v:nameU="visVersion" v:val="VT0(14):26"/>
			</v:userDefs>
			<v:textBlock v:margins="rect(4,4,4,4)" v:tabSpace="42.5197"/>
			<v:textRect cx="36.1417" cy="28.8265" width="72.29" height="56.6929"/>
			<rect x="0" y="0.48" width="72.2835" height="56.6929" class="st1"/>
			<text x="18.39" y="24.93" class="st2" v:langID="1049"><v:paragraph v:horizAlign="1"/><v:tabList/>статич. <tspan
						x="18.74" dy="1.2em" class="st3">анализ</tspan></text>		</g>
		<g id="shape2-5" v:mID="2" v:groupContext="shape" transform="translate(103.864,-0.24)">
			<title>Поле.2</title>
			<desc>компиляция</desc>
			<v:userDefs>
				<v:ud v:nameU="visVersion" v:val="VT0(14):26"/>
			</v:userDefs>
			<v:textBlock v:margins="rect(4,4,4,4)" v:tabSpace="42.5197"/>
			<v:textRect cx="36.1417" cy="28.8265" width="72.29" height="56.6929"/>
			<rect x="0" y="0.48" width="72.2835" height="56.6929" class="st1"/>
			<text x="6.4" y="32.73" class="st2" v:langID="1049"><v:paragraph v:horizAlign="1"/><v:tabList/>компиляция</text>		</g>
		<g id="shape3-8" v:mID="3" v:groupContext="shape" transform="translate(176.148,-0.24)">
			<title>Поле.3</title>
			<desc>модульные тесты</desc>
			<v:userDefs>
				<v:ud v:nameU="visVersion" v:val="VT0(14):26"/>
			</v:userDefs>
			<v:textBlock v:margins="rect(4,4,4,4)" v:tabSpace="42.5197"/>
			<v:textRect cx="36.1417" cy="28.8265" width="72.29" height="56.6929"/>
			<rect x="0" y="0.48" width="72.2835" height="56.6929" class="st1"/>
			<text x="7.98" y="24.93" class="st2" v:langID="1049"><v:paragraph v:horizAlign="1"/><v:tabList/>модульные <tspan
						x="21.67" dy="1.2em" class="st3">тесты</tspan></text>		</g>
		<g id="shape4-12" v:mID="4" v:groupContext="shape" transform="translate(248.431,-0.24)">
			<title>Поле.4</title>
			<desc>интеграц. тесты</desc>
			<v:userDefs>
				<v:ud v:nameU="visVersion" v:val="VT0(14):26"/>
			</v:userDefs>
			<v:textBlock v:margins="rect(4,4,4,4)" v:tabSpace="42.5197"/>
			<v:textRect cx="36.1417" cy="28.8265" width="72.29" height="56.6929"/>
			<rect x="0" y="0.48" width="72.2835" height="56.6929" class="st1"/>
			<text x="12.4" y="24.93" class="st2" v:langID="1049"><v:paragraph v:horizAlign="1"/><v:tabList/>интеграц<tspan
						class="st3" v:langID="1033">.</tspan> <tspan x="21.67" dy="1.2em" class="st3">тесты</tspan></text>		</g>
		<g id="shape5-17" v:mID="5" v:groupContext="shape" transform="translate(320.715,-0.24)">
			<title>Поле.5</title>
			<desc>UI тесты</desc>
			<v:userDefs>
				<v:ud v:nameU="visVersion" v:val="VT0(14):26"/>
			</v:userDefs>
			<v:textBlock v:margins="rect(4,4,4,4)" v:tabSpace="42.5197"/>
			<v:textRect cx="36.1417" cy="28.8265" width="72.29" height="56.6929"/>
			<rect x="0" y="0.48" width="72.2835" height="56.6929" class="st1"/>
			<text x="14.85" y="32.73" class="st2" v:langID="1033"><v:paragraph v:horizAlign="1"/><v:tabList/>UI <tspan class="st3"
						v:langID="1049">тесты</tspan></text>		</g>
		<g id="shape6-21" v:mID="6" v:groupContext="shape" transform="translate(392.998,-0.24)">
			<title>Поле.6</title>
			<desc>performance check</desc>
			<v:userDefs>
				<v:ud v:nameU="visVersion" v:val="VT0(14):26"/>
			</v:userDefs>
			<v:textBlock v:margins="rect(4,4,4,4)" v:tabSpace="42.5197"/>
			<v:textRect cx="36.1417" cy="28.8265" width="72.29" height="56.6929"/>
			<rect x="0" y="0.48" width="72.2835" height="56.6929" class="st1"/>
			<text x="6.22" y="24.93" class="st2" v:langID="1033"><v:paragraph v:horizAlign="1"/><v:tabList/>performance <tspan
						x="22.21" dy="1.2em" class="st3">check</tspan></text>		</g>
		<g id="shape7-25" v:mID="7" v:groupContext="shape" transform="translate(465.282,-0.24)">
			<title>Поле.7</title>
			<desc>ручная проверка</desc>
			<v:userDefs>
				<v:ud v:nameU="visVersion" v:val="VT0(14):26"/>
			</v:userDefs>
			<v:textBlock v:margins="rect(4,4,4,4)" v:tabSpace="42.5197"/>
			<v:textRect cx="36.1417" cy="28.8265" width="72.29" height="56.6929"/>
			<rect x="0" y="0.48" width="72.2835" height="56.6929" class="st1"/>
			<text x="18.94" y="24.93" class="st2" v:langID="1049"><v:paragraph v:horizAlign="1"/><v:tabList/>ручная <tspan
						x="13.27" dy="1.2em" class="st3">проверка</tspan></text>		</g>
		<g id="group8-29" transform="translate(0.399811,-8.74394)" v:mID="8" v:groupContext="group">
			<v:userDefs>
				<v:ud v:nameU="visVersion" v:val="VT0(14):26"/>
			</v:userDefs>
			<title>Простая односторонняя</title>
			<g id="shape9-30" v:mID="9" v:groupContext="shape">
				<title>Лист.9</title>
				<path d="M0 47.25 L21.26 47.25 L21.26 57.17 L31.18 37.33 L21.26 17.49 L21.26 27.41 L0 27.41 L0 47.25 Z" class="st4"/>
				<path d="M0 47.25 L21.26 47.25 L21.26 57.17 L31.18 37.33 L21.26 17.49 L21.26 27.41 L0 27.41" class="st5"/>
			</g>
			<g id="shape10-33" v:mID="10" v:groupContext="shape">
				<title>Лист.10</title>
				<path d="M0 47.25 L21.26 47.25 L21.26 57.17 L31.18 37.33 L21.26 17.49 L21.26 27.41 L0 27.41 L0 47.25" class="st5"/>
			</g>
			<g id="shape11-36" v:mID="11" v:groupContext="shape" transform="translate(-0.399811,-10.0893)">
				<title>Лист.11</title>
				<rect x="0" y="37.6664" width="0.176" height="19.5065" class="st6"/>
			</g>
		</g>
		<g id="group12-38" transform="translate(537.565,-8.74394)" v:mID="12" v:groupContext="group">
			<v:userDefs>
				<v:ud v:nameU="visVersion" v:val="VT0(14):26"/>
			</v:userDefs>
			<title>Простая односторонняя.13</title>
			<g id="shape13-39" v:mID="13" v:groupContext="shape">
				<title>Лист.13</title>
				<path d="M0 47.25 L21.26 47.25 L21.26 57.17 L31.18 37.33 L21.26 17.49 L21.26 27.41 L0 27.41 L0 47.25 Z" class="st4"/>
				<path d="M0 47.25 L21.26 47.25 L21.26 57.17 L31.18 37.33 L21.26 17.49 L21.26 27.41 L0 27.41" class="st5"/>
			</g>
			<g id="shape14-42" v:mID="14" v:groupContext="shape">
				<title>Лист.14</title>
				<path d="M0 47.25 L21.26 47.25 L21.26 57.17 L31.18 37.33 L21.26 17.49 L21.26 27.41 L0 27.41 L0 47.25" class="st5"/>
			</g>
			<g id="shape15-45" v:mID="15" v:groupContext="shape" transform="translate(-0.399811,-10.0893)">
				<title>Лист.15</title>
				<rect x="0" y="37.6664" width="0.176" height="19.5065" class="st6"/>
			</g>
		</g>
	</g>
</svg>
